<svg width="243" height="308" viewBox="0 0 243 308" fill="none" xmlns="http://www.w3.org/2000/svg">
<g clip-path="url(#clip0_18_31)">
<path d="M41.6938 155.652C68.4213 118.681 111.081 105.181 153.283 119.938C169.86 125.737 184.864 135.895 196.305 149.938C212.64 169.98 218.112 199.552 216.472 225.652C209.737 225.809 186.088 226.909 181.543 224.909C173.477 221.338 175.641 208.981 174.471 202.424C164.818 148.167 87.2036 143.681 68.9057 193.853C65.8539 202.224 66.5661 219.609 61.8471 223.495C57.1279 227.381 32.9422 225.667 25.561 225.652V219.938C25.561 216.138 25.4266 212.295 25.561 208.51C26.1525 191.281 28.9755 176.266 37.6606 161.366C38.5748 159.795 40.5107 157.295 41.6938 155.652Z" fill="#3A70B3"/>
<path d="M25.5608 208.509C23.3021 210.767 23.3155 217.738 25.5608 219.938V225.652C24.66 225.652 23.7726 225.667 22.8719 225.652V222.795C22.8719 202.095 23.5979 184.809 33.6409 166.309C31.5032 165.138 30.3066 166.352 30.952 162.795L37.6608 161.367C28.9756 176.267 26.1523 191.281 25.5608 208.509Z" fill="#538C5E"/>
<path d="M254.116 182.795C247.34 113.838 172.468 66.938 111.605 69.938L113.622 72.8094C80.9922 72.738 54.9772 87.5094 29.5941 107.081C12.3583 120.381 -9.26037 155.524 -12.0837 178.509C-12.1913 179.438 -11.9896 180.438 -12.0837 181.367C-12.9038 182.624 -14.6785 187.467 -14.7726 188.509C-16.1843 203.167 -11.0216 221.795 4.04963 225.652C4.23786 223.509 7.89475 223.509 8.08297 225.652C8.52664 225.709 8.98375 225.609 9.42741 225.652C9.61564 223.509 13.2725 223.509 13.4607 225.652C14.3481 225.695 15.2623 225.624 16.1496 225.652L16.8353 224.238L18.8385 225.652C20.183 225.681 21.5274 225.624 22.8719 225.652V222.795C22.8719 202.095 23.5979 184.809 33.6409 166.309C31.5032 165.138 30.3066 166.352 30.952 162.795L37.6607 161.367C38.575 159.795 40.511 157.295 41.6941 155.652C68.4216 118.681 111.081 105.181 153.283 119.938C169.86 125.738 184.864 135.895 196.305 149.938C212.64 169.981 216.754 211.309 216.472 225.652C237.62 226.095 258.687 229.252 254.116 182.795Z" fill="#538C5E"/>
<path d="M111.605 69.9379L113.622 72.8094C80.9922 72.7379 54.9772 87.5094 29.5941 107.081C50.4464 84.8808 81.9199 71.3951 111.605 69.9379Z" fill="#538C5E"/>
<path d="M253.995 5.06651C251.911 -11.0764 237.956 -18.4621 223.88 -18.7335C181.126 -19.5478 94.8534 -18.7335 94.8534 -18.7335C94.8534 -18.7335 33.2913 -19.4049 7.41073 -16.3192C-4.67582 -14.8764 -13.213 -4.40492 -14.6247 7.95222C-17.2733 31.1665 -14.665 64.0951 -14.7726 88.5094H-13.4282C-13.2399 87.6665 -7.80838 81.0665 -6.70594 79.9379C0.446507 72.6522 15.3026 61.5236 24.2163 55.6522C68.6502 26.3808 121.621 18.8379 172.105 34.2236C199.411 42.5522 227.873 61.0236 248.739 81.3665C250.217 82.8094 252.288 84.8379 254.116 86.5522C254.022 62.8808 256.859 27.1951 253.995 5.06651Z" fill="#880E2C"/>
<path d="M-12.0839 178.51C-12.1913 179.438 -11.9899 180.438 -12.0839 181.366C-12.904 182.623 -14.6783 187.467 -14.7724 188.51V109.937C-14.7724 102.809 -14.7992 95.638 -14.7724 88.5097H-13.4276C-13.2394 87.6668 -7.8084 81.066 -6.70596 79.9374C0.446486 72.6518 15.3023 61.5237 24.2159 55.6523C68.6498 26.3809 121.622 18.8379 172.106 34.2236C199.411 42.5522 227.873 61.0235 248.738 81.3661C250.217 82.809 250.97 83.7241 254.116 86.5527C254.251 118.91 254.022 150.438 254.116 182.795C246.292 113.967 172.468 66.9377 111.606 69.9374C81.9202 71.3946 50.4462 84.881 29.5938 107.081C12.3581 120.381 -9.26057 155.524 -12.0839 178.51Z" fill="#FFCD74"/>
<path d="M25.5607 219.938C23.3155 217.738 23.3021 210.766 25.5607 208.509C25.4263 212.295 25.5607 216.138 25.5607 219.938Z" fill="#538C5E"/>
</g>
<path d="M236.092 307.585C226.492 307.585 219.852 301.025 219.852 290.145V279.825H212.652V267.505H219.852V257.425H232.652V267.505H242.012V279.825H232.652V289.905C232.652 293.665 235.532 295.425 239.052 295.425C240.012 295.425 241.132 295.345 242.012 295.105V306.945C240.332 307.345 237.852 307.585 236.092 307.585Z" fill="#04242B"/>
<path d="M194.445 307.745C183.725 307.745 176.445 302.385 175.565 293.105H187.805C187.965 295.265 190.445 296.705 193.725 296.705C196.525 296.705 197.965 295.825 197.965 294.545C197.965 289.665 176.365 294.705 176.365 280.225C176.365 272.625 182.365 266.705 192.445 266.705C201.165 266.705 209.165 271.185 210.125 280.465H197.245C197.165 278.945 195.405 277.345 192.125 277.345C190.205 277.345 188.685 277.985 188.685 279.265C188.685 284.145 210.445 278.305 210.445 294.785C210.445 302.145 203.405 307.745 194.445 307.745Z" fill="#04242B"/>
<path d="M151.439 266.705C163.039 266.705 171.919 275.505 171.919 287.345C171.919 299.025 163.039 307.745 151.439 307.745C139.759 307.745 130.959 299.025 130.959 287.345C130.959 275.505 139.759 266.705 151.439 266.705ZM151.439 279.025C146.879 279.025 143.439 282.545 143.439 287.345C143.439 291.985 146.879 295.425 151.439 295.425C155.919 295.425 159.359 291.985 159.359 287.345C159.359 282.545 155.919 279.025 151.439 279.025ZM159.999 262.465C156.239 262.465 153.119 259.265 153.119 255.505C153.119 251.825 156.239 248.705 159.999 248.705C163.759 248.705 166.959 251.825 166.959 255.505C166.959 259.265 163.759 262.465 159.999 262.465ZM142.879 262.385C139.199 262.385 135.999 259.185 135.999 255.425C135.999 251.745 139.199 248.625 142.879 248.625C146.719 248.625 149.839 251.745 149.839 255.425C149.839 259.185 146.719 262.385 142.879 262.385Z" fill="#04242B"/>
<path d="M102.952 306.945V267.505H115.752V271.745C118.072 268.625 121.512 266.785 125.752 266.785C126.952 266.785 128.152 266.945 129.512 267.185V278.865C128.072 278.625 126.712 278.385 125.432 278.385C120.072 278.385 115.752 281.185 115.752 288.705V306.945H102.952Z" fill="#04242B"/>
<path d="M76.1091 266.145C76.1091 255.185 82.7491 248.705 92.3491 248.705C94.1891 248.705 96.6691 248.865 98.2691 249.345V261.185C97.3891 260.945 96.3491 260.865 95.3891 260.865C91.7891 260.865 88.9891 262.625 88.9891 266.385V267.505H98.2691V279.825H88.9891V306.945H76.1091V279.825H68.9891V267.505H76.1091V266.145Z" fill="#04242B"/>
<path d="M51.3891 267.505H64.1891V306.945H51.3891V267.505ZM57.7891 263.185C53.6291 263.185 50.1891 259.665 50.1891 255.505C50.1891 251.425 53.6291 247.905 57.7891 247.905C62.0291 247.905 65.4691 251.425 65.4691 255.505C65.4691 259.665 62.0291 263.185 57.7891 263.185Z" fill="#04242B"/>
<path d="M4.14221 306.945V250.945H25.5822C35.5822 250.945 43.5022 257.905 43.5022 266.065C43.5022 270.865 40.4622 275.665 36.3022 277.345C41.9022 278.705 45.9822 284.065 45.9822 290.785C45.9822 299.905 37.7422 306.945 28.0622 306.945H4.14221ZM26.9422 293.985C29.9022 293.985 32.2222 291.665 32.2222 288.785C32.2222 285.825 29.9022 283.585 27.1022 283.585H17.6622V293.985H26.9422ZM25.1822 272.545C27.8222 272.545 29.9022 270.625 29.9022 268.145C29.9022 265.665 27.8222 263.905 25.1822 263.905H17.6622V272.545H25.1822Z" fill="#04242B"/>
<defs>
<clipPath id="clip0_18_31">
<rect width="242" height="220" rx="24" fill="white"/>
</clipPath>
</defs>
</svg>
